<?xml version="1.0" encoding="UTF-8"?>
<svg width="24px" height="24px" viewBox="0 0 24 24" version="1.1" xmlns="http://www.w3.org/2000/svg" xmlns:xlink="http://www.w3.org/1999/xlink">
    <!-- Generator: Sketch 52.5 (67469) - http://www.bohemiancoding.com/sketch -->
    <title>搜索</title>
    <desc>Created with Sketch.</desc>
    <g id="页面-1" stroke="none" stroke-width="1" fill="none" fill-rule="evenodd">
        <g id="index-1" transform="translate(-920.000000, -151.000000)">
            <g id="分组-6" transform="translate(466.000000, 140.000000)">
                <g id="搜索黑色" transform="translate(454.000000, 11.000000)">
                    <rect id="矩形" fill="#D8D8D8" opacity="0" x="0" y="1" width="24" height="23"></rect>
                    <path d="M12,20.014471 C7.01890909,20.014471 3,16.1783342 3,11.4655688 C3,6.75280338 7.01890909,2.91666667 12,2.91666667 C16.9810909,2.91666667 21,6.75280338 21,11.4655688 C21,16.1783342 16.9810909,20.014471 12,20.014471 Z M12,18.5376706 C16.0568727,18.5376706 19.3636364,15.3796806 19.3636364,11.4655688 C19.3636364,7.5502756 16.0568727,4.39346707 12,4.39346707 C7.94312727,4.39346707 4.63636364,7.5502756 4.63636364,11.4655688 C4.63636364,15.3796806 7.94312727,18.5376706 12,18.5376706 Z M17.2494545,18.667629 C16.944361,18.3707103 16.961155,17.9074296 17.2870997,17.6291424 C17.6130444,17.3508552 18.1265228,17.3613965 18.4381091,17.6527718 L20.7761455,19.8845125 C21.081239,20.1814312 21.064445,20.6447119 20.7385003,20.9229991 C20.4125556,21.2012863 19.8990772,21.190745 19.5874909,20.8993698 L17.2494545,18.6664476 L17.2494545,18.667629 Z" id="形状" stroke="#FFFFFF" stroke-width="0.648" fill="#FFFFFF" fill-rule="nonzero"></path>
                </g>
            </g>
        </g>
    </g>
</svg>