<?xml version="1.0" encoding="UTF-8"?>
<svg width="25px" height="25px" viewBox="0 0 25 25" version="1.1" xmlns="http://www.w3.org/2000/svg" xmlns:xlink="http://www.w3.org/1999/xlink">
    <!-- Generator: Sketch 52.5 (67469) - http://www.bohemiancoding.com/sketch -->
    <title>Combined Shape 2</title>
    <desc>Created with Sketch.</desc>
    <g id="页面-1" stroke="none" stroke-width="1" fill="none" fill-rule="evenodd">
        <g id="index-game-详情" transform="translate(-1119.000000, -206.000000)" fill="#2F2F2F">
            <g id="Combined-Shape-2" transform="translate(1119.000000, 206.000000)">
                <path d="M11.2911616,11.7088384 L11.2911616,5.23825015 C11.2911616,4.6859654 11.7388769,4.23825015 12.2911616,4.23825015 C12.8434464,4.23825015 13.2911616,4.6859654 13.2911616,5.23825015 L13.2911616,11.7088384 L19.7617499,11.7088384 C20.3140346,11.7088384 20.7617499,12.1565536 20.7617499,12.7088384 C20.7617499,13.2611231 20.3140346,13.7088384 19.7617499,13.7088384 L13.2911616,13.7088384 L13.2911616,20.1794266 C13.2911616,20.7317114 12.8434464,21.1794266 12.2911616,21.1794266 C11.7388769,21.1794266 11.2911616,20.7317114 11.2911616,20.1794266 L11.2911616,13.7088384 L4.82057338,13.7088384 C4.26828863,13.7088384 3.82057338,13.2611231 3.82057338,12.7088384 C3.82057338,12.1565536 4.26828863,11.7088384 4.82057338,11.7088384 L11.2911616,11.7088384 Z" id="Combined-Shape" transform="translate(12.291162, 12.708838) rotate(-315.000000) translate(-12.291162, -12.708838) "></path>
            </g>
        </g>
    </g>
</svg>