<?xml version="1.0" encoding="UTF-8"?>
<svg width="20px" height="20px" viewBox="0 0 20 20" version="1.1" xmlns="http://www.w3.org/2000/svg" xmlns:xlink="http://www.w3.org/1999/xlink">
    <!-- Generator: Sketch 53.1 (72631) - https://sketchapp.com -->
    <title>icon-option</title>
    <desc>Created with Sketch.</desc>
    <g id="icon-option" stroke="none" stroke-width="1" fill="none" fill-rule="evenodd">
        <path d="M1.5,3 L18.5,3 C18.7761424,3 19,3.22385763 19,3.5 L19,5.5 C19,5.77614237 18.7761424,6 18.5,6 L1.5,6 C1.22385763,6 1,5.77614237 1,5.5 L1,3.5 C1,3.22385763 1.22385763,3 1.5,3 Z M1.5,9 L18.5,9 C18.7761424,9 19,9.22385763 19,9.5 L19,11.5 C19,11.7761424 18.7761424,12 18.5,12 L1.5,12 C1.22385763,12 1,11.7761424 1,11.5 L1,9.5 C1,9.22385763 1.22385763,9 1.5,9 Z M1.5,15 L18.5,15 C18.7761424,15 19,15.2238576 19,15.5 L19,17.5 C19,17.7761424 18.7761424,18 18.5,18 L1.5,18 C1.22385763,18 1,17.7761424 1,17.5 L1,15.5 C1,15.2238576 1.22385763,15 1.5,15 Z" id="Combined-Shape" fill="#000000"></path>
    </g>
</svg>